<svg width="110" height="18" fill="none" xmlns="http://www.w3.org/2000/svg"><path d="M7.679 8.795l4.027 5.83H9.453L5.984 9.653H4.32v4.972H2.345V5.413H.852l.995-1.855H4.32v4.38h1.664l3.296-4.38h2.24L7.679 8.795zm3.421 1.84c0-.863.197-1.616.591-2.26a3.774 3.774 0 011.57-1.388 4.848 4.848 0 012.147-.483c.788 0 1.498.156 2.13.468a3.67 3.67 0 011.571 1.434c.384.623.575 1.366.575 2.228 0 .873-.191 1.627-.575 2.26a3.92 3.92 0 01-1.57 1.45 4.627 4.627 0 01-2.131.499 4.69 4.69 0 01-2.13-.499 3.86 3.86 0 01-1.603-1.45c-.383-.644-.575-1.397-.575-2.26zm33.545-3.882h1.757V7.83c.27-.416.627-.733 1.073-.95.456-.23 1.042-.344 1.757-.344.736 0 1.39.166 1.96.499.55.343.974.831 1.275 1.465.311.624.467 1.34.467 2.151 0 .821-.156 1.548-.467 2.182a3.408 3.408 0 01-1.275 1.45c-.26.177-.565.306-.918.39a3.93 3.93 0 01-1.042.14c-.611 0-1.068-.047-1.368-.14-.622-.188-1.063-.5-1.322-.936v3.679h-1.897V6.753zm-23.95 0h1.882v2.993h3.22V6.753h1.865v7.872h-1.866v-3.32h-3.219v3.32h-1.882V6.753zm7.792 0h7.231V8.25h-2.675v6.375H31.13V8.25h-2.643V6.753zm9.828 0a116.624 116.624 0 011.929 5.736c.55-1.87 1.171-3.782 1.866-5.736h1.897l-2.892 8.028c-.239.654-.467 1.158-.685 1.512a2.314 2.314 0 01-.886.794c-.342.188-.798.281-1.369.281-.321 0-.497-.005-.528-.015l-.638-1.497c.197.042.44.063.73.063.353 0 .638-.052.856-.156.197-.083.348-.198.451-.343.104-.135.192-.307.264-.515l-2.985-8.152h1.99zM13.013 10.62c0 .862.207 1.522.622 1.98.415.446.99.67 1.726.67.747 0 1.327-.224 1.742-.67.425-.458.637-1.118.637-1.98 0-.842-.207-1.476-.621-1.902-.415-.436-1.001-.654-1.758-.654-.746 0-1.327.218-1.742.654-.404.426-.606 1.06-.606 1.902zm33.482.015c.021.78.228 1.403.622 1.87.394.469.949.702 1.664.702.716 0 1.265-.233 1.649-.701.394-.468.596-1.091.606-1.87-.01-.77-.212-1.382-.606-1.84-.384-.467-.933-.701-1.649-.701-.715 0-1.27.228-1.664.686-.394.457-.601 1.075-.622 1.854z" fill="#fff"/><path d="M65.048 3.558v9.867h1.322v3.507h-1.385v-2.307h-8.304v2.307h-1.4v-3.507h.918c.643-.863 1.042-2.063 1.197-3.601.062-.717.099-1.434.109-2.151l.031-4.115h7.512zm-1.431 1.2h-4.759l-.03 3.04c-.012 1.403-.115 2.556-.312 3.46-.197.894-.477 1.616-.84 2.167h5.94V4.758zm11.099 1.995v7.872h-1.275v-3.133c0-1.486.02-2.598.062-3.336-.197.364-.56.935-1.089 1.715l-.855 1.262-2.286 3.492h-1.43V6.753h1.26v3.601c0 .655-.006 1.08-.017 1.278l-.031 1.559c.415-.717 1-1.642 1.758-2.775l2.457-3.663h1.446zm7.097 7.872v-1.06c-.28.416-.653.738-1.12.966-.466.218-1.005.328-1.617.328-.87 0-1.555-.198-2.053-.593-.487-.395-.73-.95-.73-1.668v-.078c0-.79.274-1.387.823-1.792.56-.416 1.42-.655 2.582-.717l2.053-.14v-.53c0-.561-.161-.982-.482-1.263-.322-.29-.788-.436-1.4-.436-.508 0-.97.104-1.384.312-.404.197-.82.53-1.244.997l-.855-.78c.901-1.09 2.052-1.636 3.452-1.636 1.005 0 1.788.24 2.349.717.559.478.839 1.143.839 1.995v5.378h-1.213zm-2.022-3.663c-.809.041-1.379.177-1.71.405-.332.229-.498.592-.498 1.091v.078c0 .405.15.717.451.935.31.219.746.328 1.306.328.446 0 .856-.089 1.229-.265a2.1 2.1 0 00.871-.733c.207-.322.31-.686.31-1.091v-.842l-1.959.094zm4.255 2.572h.731c.29-.312.508-.77.653-1.372.156-.613.244-1.444.265-2.494l.03-2.915h5.91v6.78h1.151v3.04h-1.29v-1.948h-6.174v1.948h-1.276v-3.04zm6.252-5.69h-3.375l-.03 1.902c-.011.987-.079 1.787-.203 2.4-.124.613-.311 1.076-.56 1.388h4.168v-5.69zm11.181 2.853c0 .81-.171 1.527-.513 2.15a3.782 3.782 0 01-1.462 1.482c-.622.342-1.332.514-2.13.514-.809 0-1.52-.177-2.13-.53a3.678 3.678 0 01-1.478-1.45c-.343-.623-.513-1.345-.513-2.166v-.063c0-.8.176-1.506.528-2.12a3.596 3.596 0 011.447-1.449c.622-.353 1.337-.53 2.146-.53.798 0 1.508.172 2.13.515a3.6 3.6 0 011.446 1.45c.353.623.529 1.334.529 2.134v.063zm-6.858 0c0 .603.114 1.127.342 1.574.228.468.55.826.965 1.076.414.249.896.374 1.446.374.55 0 1.031-.13 1.446-.39.415-.25.73-.603.949-1.06.228-.457.342-.982.342-1.574v-.063c0-.592-.114-1.111-.343-1.558a2.501 2.501 0 00-.98-1.044 2.69 2.69 0 00-1.414-.375c-.529 0-1 .12-1.416.359-.414.25-.741.603-.98 1.06a3.337 3.337 0 00-.357 1.558v.063zm10.963.452h-1.353v3.476h-1.337V6.753h1.337v3.305h1.369l2.581-3.305h1.431l-2.939 3.788 3.188 4.084h-1.524l-2.753-3.476z" fill="#00BEA2"/></svg>