<svg width="20" height="20" fill="none" xmlns="http://www.w3.org/2000/svg"><path d="M3.94 5h12.12c.162 0 .316-.088.43-.244.113-.157.177-.369.177-.59 0-.22-.064-.433-.178-.589-.113-.156-.268-.244-.428-.244H3.94c-.161 0-.315.088-.429.244a1.013 1.013 0 00-.178.59c0 .22.064.432.178.589.114.156.268.244.429.244zm12.12 4.167H3.94c-.161 0-.315.088-.429.244a1.013 1.013 0 00-.178.59c0 .22.064.432.178.589.114.156.268.244.429.244h12.12c.162 0 .316-.088.43-.244.113-.157.177-.369.177-.59 0-.22-.064-.433-.178-.589-.113-.156-.268-.244-.428-.244zm0 5.833H3.94c-.161 0-.315.088-.429.244a1.013 1.013 0 00-.178.59c0 .22.064.432.178.589.114.156.268.244.429.244h12.12c.162 0 .316-.088.43-.244.113-.157.177-.369.177-.59 0-.22-.064-.433-.178-.589-.113-.156-.268-.244-.428-.244z" fill="#fff"/></svg>