<svg width="20" height="20" fill="none" xmlns="http://www.w3.org/2000/svg"><path d="M17.63 16.45a9.961 9.961 0 000-12.9l.716-.717a.834.834 0 00-1.18-1.179l-.716.717a9.962 9.962 0 00-12.902 0l-.716-.717a.833.833 0 00-1.178 1.18l.717.716a9.962 9.962 0 000 12.902l-.717.716a.834.834 0 101.18 1.178l.716-.717a9.962 9.962 0 0012.902 0l.716.717a.833.833 0 001.178-1.18l-.717-.715zm.703-6.45a8.291 8.291 0 01-1.885 5.27l-2.976-2.976a4.138 4.138 0 000-4.588l2.976-2.976A8.291 8.291 0 0118.333 10zM7.5 10a2.5 2.5 0 115 0 2.5 2.5 0 01-5 0zM10 1.667a8.29 8.29 0 015.27 1.885l-2.976 2.976a4.138 4.138 0 00-4.588 0L4.73 3.552A8.29 8.29 0 0110 1.667zM1.667 10a8.29 8.29 0 011.885-5.27l2.975 2.976a4.138 4.138 0 000 4.588L3.552 15.27A8.29 8.29 0 011.667 10zM10 18.333a8.29 8.29 0 01-5.27-1.885l2.976-2.976a4.138 4.138 0 004.588 0l2.976 2.976A8.29 8.29 0 0110 18.333z" fill="#14121E"/></svg>