<svg width="21" height="20" fill="none" xmlns="http://www.w3.org/2000/svg"><g clip-path="url(#clip0)" fill="#4CB7BF"><path d="M10.668 0a10 10 0 1010 10 10.011 10.011 0 00-10-10zm0 18.333A8.333 8.333 0 1119.001 10a8.342 8.342 0 01-8.333 8.333z"/><path d="M10.668 5a.833.833 0 00-.833.833v3.604l-2.81 1.76a.835.835 0 00.886 1.417l3.2-2a.834.834 0 00.39-.715V5.833A.834.834 0 0010.668 5z"/></g><defs><clipPath id="clip0"><path fill="#fff" transform="translate(.668)" d="M0 0h20v20H0z"/></clipPath></defs></svg>