<svg width="48" height="49" fill="none" xmlns="http://www.w3.org/2000/svg"><g clip-path="url(#clip0)" fill="#14121E" fill-opacity=".2"><path d="M36 38.5a2.001 2.001 0 001.414-3.414L25.07 22.744a10 10 0 00-14.14 0l-4.344 4.342a2 2 0 002.828 2.828l4.344-4.342a6.14 6.14 0 018.484 0l12.344 12.342A2 2 0 0036 38.5zm-4-17a7 7 0 100-14 7 7 0 000 14zm0-10a3 3 0 110 6 3 3 0 010-6zm14 21a2 2 0 00-2 2v4a6 6 0 01-6 6h-4a2 2 0 000 4h4a10.013 10.013 0 0010-10v-4a2 2 0 00-2-2zm-44-16a2 2 0 002-2v-4a6 6 0 016-6h4a2 2 0 000-4h-4a10.012 10.012 0 00-10 10v4a2 2 0 002 2zm12 28h-4a6 6 0 01-6-6v-4a2 2 0 00-4 0v4a10.012 10.012 0 0010 10h4a2 2 0 000-4zm24-44h-4a2 2 0 000 4h4a6 6 0 016 6v4a2 2 0 004 0v-4a10.012 10.012 0 00-10-10z"/></g><defs><clipPath id="clip0"><path fill="#fff" transform="translate(0 .5)" d="M0 0h48v48H0z"/></clipPath></defs></svg>