<svg width="20" height="20" fill="none" xmlns="http://www.w3.org/2000/svg"><g clip-path="url(#clip0)" fill="#9B9B9B"><path d="M15.833 1.667H15V.833a.833.833 0 10-1.667 0v.834H6.667V.833A.833.833 0 005 .833v.834h-.833A4.172 4.172 0 000 5.833v10A4.172 4.172 0 004.167 20h11.666A4.172 4.172 0 0020 15.833v-10a4.172 4.172 0 00-4.167-4.166zM1.667 5.833a2.5 2.5 0 012.5-2.5h11.666a2.5 2.5 0 012.5 2.5v.834H1.667v-.834zm14.166 12.5H4.167a2.5 2.5 0 01-2.5-2.5v-7.5h16.666v7.5a2.5 2.5 0 01-2.5 2.5z"/><path d="M10 13.75a1.25 1.25 0 100-2.5 1.25 1.25 0 000 2.5zm-4.167 0a1.25 1.25 0 100-2.5 1.25 1.25 0 000 2.5zm8.334 0a1.25 1.25 0 100-2.5 1.25 1.25 0 000 2.5z"/></g><defs><clipPath id="clip0"><path fill="#fff" d="M0 0h20v20H0z"/></clipPath></defs></svg>