<svg width="20" height="20" fill="none" xmlns="http://www.w3.org/2000/svg"><path d="M19.392 7.85a13.22 13.22 0 00-2.809-3.258l2.334-2.334a.833.833 0 00-1.179-1.178l-2.537 2.541A10.045 10.045 0 0010 2.213c-5.16 0-8.1 3.531-9.393 5.636a4.09 4.09 0 000 4.302 13.225 13.225 0 002.81 3.258l-2.334 2.333a.833.833 0 101.178 1.178l2.544-2.543A10.045 10.045 0 0010 17.787c5.159 0 8.099-3.531 9.392-5.636a4.09 4.09 0 000-4.302zM2.027 11.277a2.432 2.432 0 010-2.556C3.14 6.917 5.651 3.879 10 3.879a8.417 8.417 0 013.972.971l-1.678 1.678a4.16 4.16 0 00-5.767 5.766L4.602 14.22a11.437 11.437 0 01-2.575-2.94zM12.5 10a2.5 2.5 0 01-2.5 2.5 2.458 2.458 0 01-1.071-.25l3.32-3.32c.164.333.25.699.25 1.07zm-5 0A2.5 2.5 0 0110 7.5a2.46 2.46 0 011.07.25l-3.32 3.321a2.46 2.46 0 01-.25-1.07zm10.472 1.278c-1.111 1.806-3.624 4.843-7.972 4.843a8.417 8.417 0 01-3.972-.97l1.678-1.678a4.16 4.16 0 005.766-5.767l1.925-1.925a11.433 11.433 0 012.575 2.94 2.432 2.432 0 010 2.557z" fill="#14121E" fill-opacity=".2"/></svg>