<svg width="16" height="16" fill="none" xmlns="http://www.w3.org/2000/svg"><g clip-path="url(#clip0)" fill="#9B9B9B"><path d="M15.514 6.28C14.48 4.594 12.128 1.77 8 1.77S1.52 4.595.486 6.28a3.272 3.272 0 000 3.44C1.52 11.406 3.872 14.23 8 14.23s6.48-2.825 7.514-4.51a3.272 3.272 0 000-3.44zm-1.137 2.743C13.49 10.467 11.48 12.897 8 12.897s-5.49-2.43-6.377-3.874a1.945 1.945 0 010-2.046C2.51 5.533 4.52 3.103 8 3.103s5.49 2.428 6.377 3.874a1.945 1.945 0 010 2.046z"/><path d="M8 4.667a3.333 3.333 0 100 6.666 3.333 3.333 0 000-6.666zM8 10a2 2 0 110-4 2 2 0 010 4z"/></g><defs><clipPath id="clip0"><path fill="#fff" d="M0 0h16v16H0z"/></clipPath></defs></svg>