<svg width="110" height="18" fill="none" xmlns="http://www.w3.org/2000/svg"><g clip-path="url(#clip0)"><path d="M71.802.415h-9c-.1 0-.15.052-.15.156-.25 4.201-1 8.766-2.1 12.45v.155c.05.052.1.052.15.052h3.1c.05 0 .15-.052.15-.104.85-2.853 1.55-6.588 1.8-9.752h2.95v9.7c0 .104.05.156.15.156h2.95c.1 0 .15-.052.15-.156V.622c0-.103-.05-.207-.15-.207zm38.05 0h-2.95c-.1 0-.15.052-.15.156v9.648c-.65.208-1.3.26-2 .26-1.95 0-2.4-.623-2.4-3.32V.623c0-.104-.05-.156-.15-.156h-2.95c-.1 0-.15.052-.15.156v6.95c0 4.358 1.4 6.07 5.05 6.07 2.05 0 4.4-.57 5.75-1.09.05 0 .1-.103.1-.155V.623c0-.104-.05-.208-.15-.208zm-62.25.052h-3c-.1 0-.15.052-.15.104-.45 1.919-1.4 5.135-2.7 8.507l-3-8.56c0-.051-.1-.103-.15-.103h-3c-.05 0-.1.052-.15.052-.05.052-.05.104 0 .156l4.5 12.76c-.45.986-.9 1.816-1.3 2.594-.3.57-.6 1.141-.9 1.764-.05.052 0 .104 0 .155.05.052.1.104.15.104h3.25c.05 0 .1-.052.15-.104.55-1.089 1.25-2.645 1.9-4.201 1.9-4.669 3.45-9.026 4.6-13.02 0-.052 0-.104-.05-.156-.05-.052-.1-.052-.15-.052zm10.7 9.804c0-.052-.05-.104-.1-.104h-.15c-.7.26-2.05.519-3 .519-2.05 0-3-.57-3-3.839 0-2.593.3-3.838 3-3.838.75 0 1.5.104 2.4.415.1 0 .15 0 .2-.104.35-.674.75-1.452 1.2-2.49V.674c0-.051-.05-.103-.1-.103-1.2-.415-2.65-.623-3.9-.623-4.3 0-6.2 2.075-6.2 6.796 0 4.772 1.9 6.899 6.2 6.899 1.05 0 3.2-.26 4.2-.675.1-.052.1-.103.1-.207l-.85-2.49zM86.252.467h-3c-.05 0-.15.052-.15.104-.45 1.919-1.4 5.135-2.7 8.507l-3-8.56c0-.051-.1-.103-.15-.103h-3c-.05 0-.1.052-.15.052-.05.052-.05.104 0 .156l4.5 12.76c-.45.986-.9 1.764-1.3 2.594-.3.57-.6 1.141-.9 1.764-.05.052 0 .104 0 .155.05.052.1.104.15.104h3.25c.05 0 .1-.052.15-.104.55-1.089 1.25-2.645 1.9-4.201 1.9-4.669 3.45-9.026 4.55-13.02 0-.052 0-.104-.05-.156 0-.052-.05-.052-.1-.052zm11-.052h-8.7c-.1 0-.15.052-.15.156v12.501c0 .104.05.156.15.156h2.95c.1 0 .15-.052.15-.156V3.424h4.55c.05 0 .15-.052.15-.104.35-.83.7-1.764 1.05-2.646V.52c-.05-.052-.1-.104-.15-.104z" fill="#EE3F58"/><path d="M15.65 10.79c-1.95 0-2.55-.571-2.55-3.943 0-3.63.65-3.942 2.55-3.942s2.6.311 2.6 3.942c0 3.424-.65 3.943-2.6 3.943zm0-10.738c-4.25 0-5.9 1.867-5.9 6.743 0 4.928 1.65 6.848 5.9 6.848s5.95-1.92 5.95-6.848c0-4.824-1.7-6.743-5.95-6.743zM33.3 10.27c0-.052-.05-.104-.1-.104h-.15c-.7.26-2.05.519-3 .519-2.05 0-3-.57-3-3.839 0-2.593.3-3.838 3-3.838.75 0 1.5.103 2.4.415.05 0 .15 0 .2-.104.35-.674.75-1.453 1.2-2.49V.674c0-.052-.05-.103-.1-.103C32.6.207 31.15 0 29.9 0c-4.3 0-6.2 2.075-6.2 6.795 0 4.773 1.9 6.9 6.2 6.9 1.05 0 3.2-.26 4.2-.675.1-.052.1-.104.1-.207l-.9-2.542zM8.85.415H.15c-.1 0-.15.104-.15.207v12.502c0 .104.05.155.15.155H3.1c.1 0 .15-.051.15-.155v-9.7H7.8c.05 0 .1-.052.15-.104.35-.83.7-1.764 1.05-2.646V.52C8.95.467 8.9.415 8.85.415z" fill="#0065B1"/></g><defs><clipPath id="clip0"><path fill="#fff" d="M0 0h110v18H0z"/></clipPath></defs></svg>