<svg width="24" height="24" fill="none" xmlns="http://www.w3.org/2000/svg"><path d="M18 7a1 1 0 11-2 0 1 1 0 012 0zm-4 2a1 1 0 100 2 1 1 0 000-2zm-3 3a1 1 0 100 2.002A1 1 0 0011 12zm12.866-9.042l-.075.211C22.289 7.337 20.848 11.3 18 14.82V15a11.022 11.022 0 01-3.6 8.135c-.6.553-1.384.862-2.2.865A3.21 3.21 0 019 20.794v-1.151a4.95 4.95 0 01-1.961-1.191L7 18.414l-2.293 2.293a1 1 0 01-1.414-1.414L5.586 17l-.039-.038A4.98 4.98 0 014.353 15h-.99A3.366 3.366 0 01.938 9.3 10.922 10.922 0 019 6h.18C12.7 3.153 16.66 1.712 20.826.211l.216-.077a2.2 2.2 0 012.824 2.824zM3.363 13H4.1a5 5 0 01.891-2.45A25.362 25.362 0 016.8 8.244a8.507 8.507 0 00-4.4 2.426 1.41 1.41 0 00-.4.968A1.364 1.364 0 003.363 13zM15.7 17.252a25.558 25.558 0 01-2.252 1.759 4.983 4.983 0 01-2.448.876v.907A1.207 1.207 0 0012.207 22a1.27 1.27 0 00.852-.345 9 9 0 002.641-4.403zm6.237-15.189a.19.19 0 00-.217-.048l-.215.078c-4.844 1.745-9.027 3.253-12.629 6.854A20.87 20.87 0 006.628 11.7a3 3 0 00.333 3.851l1.492 1.49a3 3 0 003.849.334c.98-.67 1.9-1.422 2.751-2.248 3.6-3.6 5.11-7.787 6.856-12.633l.076-.211a.191.191 0 00-.048-.22z" fill="#fff"/></svg>