<svg width="24" height="24" fill="none" xmlns="http://www.w3.org/2000/svg"><path d="M21.155 19.741a11.954 11.954 0 000-15.482l.86-.86A1 1 0 0020.6 1.985l-.86.86a11.954 11.954 0 00-15.482 0l-.86-.86A1 1 0 001.985 3.4l.86.86a11.954 11.954 0 000 15.482l-.86.86A1 1 0 103.4 22.015l.86-.86a11.954 11.954 0 0015.482 0l.86.86a1 1 0 001.413-1.415l-.86-.859zM22 12a9.948 9.948 0 01-2.262 6.324l-3.571-3.571a4.966 4.966 0 000-5.506l3.57-3.571A9.948 9.948 0 0122 12zM9 12a3 3 0 116 0 3 3 0 01-6 0zm3-10a9.949 9.949 0 016.324 2.262l-3.571 3.571a4.966 4.966 0 00-5.506 0L5.676 4.262A9.949 9.949 0 0112 2zM2 12a9.949 9.949 0 012.262-6.324l3.57 3.571a4.966 4.966 0 000 5.506l-3.57 3.571A9.949 9.949 0 012 12zm10 10a9.95 9.95 0 01-6.324-2.262l3.57-3.571a4.966 4.966 0 005.507 0l3.57 3.571A9.95 9.95 0 0112 22z" fill="#fff"/></svg>