<svg width="24" height="23" fill="none" xmlns="http://www.w3.org/2000/svg"><path d="M23.9 11.437A12 12 0 000 13a11.878 11.878 0 003.76 8.712A4.84 4.84 0 007.112 23h9.767a4.994 4.994 0 003.51-1.429 11.944 11.944 0 003.51-10.134zm-4.909 8.7a3 3 0 01-2.11.863H7.112c-.73.015-1.44-.25-1.98-.741A9.9 9.9 0 012 13a10.014 10.014 0 013.338-7.457A9.881 9.881 0 0111.986 3a9.994 9.994 0 017.005 17.142v-.005zM7.807 17.285a1 1 0 11-1.4 1.43 8 8 0 016.736-13.634 1 1 0 01.847 1.133.987.987 0 01-1.133.848 6 6 0 00-5.05 10.223zm12.112-5.428a8.08 8.08 0 01-.541 4.246 7.931 7.931 0 01-1.786 2.613 1.002 1.002 0 01-1.4-1.432 5.98 5.98 0 001.744-5.141 1 1 0 111.981-.286h.002zm-5.993.631a2.033 2.033 0 11-1.414-1.414l3.781-3.781a1 1 0 111.414 1.414l-3.78 3.781z" fill="#fff"/></svg>