<svg width="18" height="18" fill="none" xmlns="http://www.w3.org/2000/svg"><path fill-rule="evenodd" clip-rule="evenodd" d="M9 4.452a4.548 4.548 0 100 9.096 4.548 4.548 0 000-9.096zm0 7.5a2.952 2.952 0 110-5.904 2.952 2.952 0 010 5.904z" fill="#fff"/><path d="M14.79 4.272a1.063 1.063 0 11-2.125 0 1.063 1.063 0 012.125 0z" fill="#fff"/><path fill-rule="evenodd" clip-rule="evenodd" d="M9 .143c-2.405 0-2.707.01-3.652.054-.942.043-1.586.192-2.15.411A4.341 4.341 0 001.63 1.63c-.45.442-.8.978-1.022 1.569C.39 3.762.24 4.406.197 5.349.154 6.292.143 6.594.143 9s.01 2.707.054 3.652c.043.942.193 1.586.411 2.15A4.341 4.341 0 001.63 16.37c.442.45.978.8 1.569 1.022.563.219 1.207.368 2.15.411.944.043 1.246.054 3.651.054s2.707-.01 3.652-.054c.942-.043 1.586-.192 2.15-.411a4.529 4.529 0 002.59-2.59c.219-.564.368-1.208.411-2.15.043-.945.054-1.247.054-3.652 0-2.405-.01-2.707-.054-3.652-.043-.942-.192-1.586-.411-2.15A4.342 4.342 0 0016.37 1.63c-.442-.45-.978-.8-1.569-1.022-.563-.219-1.207-.368-2.15-.411C11.707.154 11.405.143 9 .143zM9 1.74c2.365 0 2.645.01 3.579.052.863.04 1.332.184 1.644.305.385.142.733.368 1.019.662.294.286.52.634.662 1.019.122.312.266.78.305 1.644.043.934.052 1.214.052 3.58 0 2.364-.01 2.644-.052 3.578-.04.864-.184 1.332-.305 1.645a2.933 2.933 0 01-1.68 1.68c-.313.122-.782.266-1.645.305-.934.043-1.214.052-3.58.052-2.364 0-2.644-.009-3.578-.052-.864-.039-1.332-.183-1.645-.305a2.742 2.742 0 01-1.018-.662 2.744 2.744 0 01-.662-1.018c-.122-.313-.266-.781-.305-1.645-.043-.934-.052-1.214-.052-3.579s.01-2.645.052-3.579c.04-.863.183-1.332.305-1.644.142-.385.368-.733.662-1.019.286-.294.634-.52 1.019-.662.312-.121.78-.266 1.644-.305C6.355 1.749 6.635 1.74 9 1.74z" fill="#fff"/></svg>