<svg width="260" height="56" fill="none" xmlns="http://www.w3.org/2000/svg"><path d="M90.26 51.703c-.743-.768-1.114-1.698-1.114-2.79 0-1.09.371-2.018 1.114-2.782.748-.768 1.634-1.152 2.659-1.152.589 0 1.137.128 1.644.384.512.25.879.502 1.099.753l.33.361-.791.784a4.175 4.175 0 00-.092-.13 3.721 3.721 0 00-.277-.308 2.47 2.47 0 00-1.091-.684 2.582 2.582 0 00-.822-.13c-.723 0-1.35.281-1.883.845-.527.558-.791 1.248-.791 2.067 0 .815.264 1.504.791 2.068.533.558 1.16.837 1.883.837.44 0 .858-.105 1.252-.315.394-.21.681-.42.86-.63l.254-.307.784.707c-.03.04-.08.1-.146.177a4.725 4.725 0 01-.4.376 5.18 5.18 0 01-.645.469 4.517 4.517 0 01-.876.376c-.353.113-.715.17-1.083.17-1.03 0-1.916-.382-2.659-1.146zm11.472-6.724v1.106h-.477c-.65 0-1.206.226-1.667.677-.46.45-.691 1.037-.691 1.76v4.173h-1.1V45.14h1.1v1.022c.02-.03.05-.072.092-.123.04-.056.138-.151.292-.284a3.03 3.03 0 01.491-.361c.18-.108.415-.203.707-.285.298-.087.61-.13.938-.13h.315zm8.175 4.35l-6.139-.016c.041.682.32 1.27.838 1.768a2.576 2.576 0 001.836.745c.471 0 .909-.105 1.314-.315.405-.21.691-.42.86-.63l.269-.307.707.707-.138.177a3.777 3.777 0 01-.384.376 4.23 4.23 0 01-.638.469c-.225.133-.52.259-.884.376a3.66 3.66 0 01-1.106.17c-1.03 0-1.916-.382-2.659-1.146-.742-.768-1.114-1.698-1.114-2.79 0-1.09.367-2.018 1.099-2.782.738-.768 1.603-1.152 2.597-1.152 1.03 0 1.89.358 2.582 1.076.691.712 1.037 1.614 1.037 2.705l-.077.569zm-1.851-2.652a2.36 2.36 0 00-1.691-.669c-.661 0-1.237.234-1.729.7-.491.466-.781 1.02-.868 1.66h5.117c-.082-.682-.358-1.245-.829-1.69zm5.547 1.691l2.912-.477c0-.558-.176-1.011-.53-1.36-.353-.348-.807-.523-1.36-.523-.4 0-.776.093-1.129.277-.349.18-.602.364-.761.554l-.238.269-.707-.708c.031-.04.071-.092.123-.153a4.01 4.01 0 01.353-.339 4.81 4.81 0 01.576-.438c.2-.128.461-.24.784-.338.328-.102.661-.153.999-.153.861 0 1.573.279 2.136.837.569.559.853 1.25.853 2.075v4.804h-1.099v-1.022c-.02.03-.054.074-.1.13a3.155 3.155 0 01-.292.285 3.34 3.34 0 01-.484.36 3.008 3.008 0 01-.691.278 3.125 3.125 0 01-.876.123c-.753 0-1.388-.223-1.906-.67-.512-.445-.768-.955-.768-1.529 0-.63.189-1.137.568-1.521.38-.39.925-.643 1.637-.761zm.469 3.458c.712 0 1.296-.233 1.752-.699.461-.466.691-1.07.691-1.814v-.476l-2.597.476c-.942.18-1.416.625-1.421 1.337 0 .339.138.62.415.846.281.22.668.33 1.16.33zm6.761-7.47V42.62h1.022v2.521h1.652v1.022h-1.652v4.489c0 .788.341 1.18 1.022 1.175.169 0 .336-.02.5-.061.169-.041.297-.077.384-.108l.138-.061v1.022a2.257 2.257 0 01-1.068.23c-.65 0-1.16-.19-1.529-.568-.364-.385-.545-.928-.545-1.63v-4.488h-1.422V45.14h.868c.42 0 .63-.261.63-.784zm11.326 4.973l-6.139-.016c.041.682.32 1.27.837 1.768.523.497 1.135.745 1.837.745.471 0 .909-.105 1.314-.315.404-.21.691-.42.86-.63l.269-.307.707.707-.138.177a4.014 4.014 0 01-.384.376 4.28 4.28 0 01-.638.469c-.225.133-.52.259-.884.376a3.66 3.66 0 01-1.106.17c-1.03 0-1.916-.382-2.659-1.146-.742-.768-1.114-1.698-1.114-2.79 0-1.09.366-2.018 1.099-2.782.738-.768 1.603-1.152 2.597-1.152 1.03 0 1.89.358 2.582 1.076.691.712 1.037 1.614 1.037 2.705l-.077.569zm-1.852-2.652a2.355 2.355 0 00-1.69-.669c-.661 0-1.237.234-1.729.7a2.743 2.743 0 00-.868 1.66h5.117c-.082-.682-.358-1.245-.83-1.69zm8.806 4.281c.553-.584.83-1.263.83-2.037 0-.779-.277-1.457-.83-2.036-.548-.584-1.163-.877-1.844-.877-.651 0-1.235.285-1.752.853-.512.564-.768 1.25-.768 2.06 0 .805.256 1.491.768 2.06.517.564 1.101.845 1.752.845.681 0 1.296-.29 1.844-.868zm.83-4.634v-4.65h1.098v11.02h-1.098v-1.183c-.021.031-.057.08-.108.146a3.83 3.83 0 01-.33.323 3.91 3.91 0 01-.546.415 3.272 3.272 0 01-.753.315 3.19 3.19 0 01-.937.139c-.963 0-1.808-.385-2.536-1.153-.722-.774-1.083-1.699-1.083-2.775 0-1.08.361-2.008 1.083-2.782.728-.774 1.573-1.16 2.536-1.16.323 0 .632.048.93.146a3.419 3.419 0 011.29.715c.154.133.269.245.346.338l.108.146zm8.69.561c-.548.579-.822 1.257-.822 2.036 0 .774.274 1.453.822 2.037.553.579 1.17.868 1.852.868.65 0 1.232-.281 1.744-.845.517-.569.776-1.255.776-2.06 0-.81-.259-1.496-.776-2.06-.512-.568-1.094-.853-1.744-.853-.682 0-1.299.292-1.852.877zm-.822-5.211v4.65c.02-.031.056-.077.107-.139.057-.066.167-.177.331-.33.169-.154.351-.29.545-.408.195-.123.443-.23.746-.322a3.11 3.11 0 01.945-.146c.963 0 1.805.386 2.528 1.16.727.774 1.091 1.701 1.091 2.782 0 1.076-.361 2.001-1.084 2.775-.722.768-1.567 1.153-2.535 1.153-.323 0-.635-.047-.938-.139a3.227 3.227 0 01-.753-.33 4.91 4.91 0 01-.538-.385 2.845 2.845 0 01-.33-.338l-.115-.146v1.184h-1.099V41.674h1.099zm9.912 12.12l.392-1.1-3.074-7.554h1.183l2.444 6.14 2.436-6.14h1.183l-3.465 8.654c-.313.8-.648 1.365-1.007 1.698-.359.339-.809.508-1.352.508a3.08 3.08 0 01-.492-.039 1.782 1.782 0 01-.346-.084l-.107-.031v-1.03c.261.102.522.156.783.161.666 0 1.14-.394 1.422-1.183zm8.191-12.12h8.106v1.107h-3.466v9.914h-1.175V42.78h-3.465v-1.107zm10.465 6.694l2.912-.477c0-.558-.177-1.011-.53-1.36-.354-.348-.807-.523-1.36-.523-.4 0-.776.093-1.13.277-.348.18-.602.364-.761.554l-.238.269-.707-.708c.031-.04.072-.092.123-.153a4.07 4.07 0 01.354-.339c.184-.163.376-.31.576-.438.2-.128.461-.24.784-.338.328-.102.661-.153.999-.153.86 0 1.572.279 2.136.837.568.559.853 1.25.853 2.075v4.804h-1.099v-1.022c-.021.03-.054.074-.1.13a3.155 3.155 0 01-.292.285c-.149.133-.31.253-.484.36a3.018 3.018 0 01-.692.278 3.115 3.115 0 01-.876.123c-.753 0-1.388-.223-1.905-.67-.512-.445-.769-.955-.769-1.529 0-.63.19-1.137.569-1.521.379-.39.925-.643 1.637-.761zm.468 3.458c.712 0 1.296-.233 1.752-.699.461-.466.692-1.07.692-1.814v-.476l-2.597.476c-.943.18-1.417.625-1.422 1.337 0 .339.139.62.415.846.282.22.669.33 1.16.33zm9.989-6.847v1.106h-.476a2.3 2.3 0 00-1.668.677c-.461.45-.691 1.037-.691 1.76v4.173h-1.099V45.14h1.099v1.022c.02-.03.051-.072.092-.123.041-.056.138-.151.292-.284.154-.139.318-.259.492-.361.179-.108.415-.203.707-.285.297-.087.609-.13.937-.13h.315zm6.992 7.247v-.945c-.02.03-.051.074-.092.13a3.04 3.04 0 01-.292.308 2.76 2.76 0 01-.492.392 3.321 3.321 0 01-1.636.43c-.953 0-1.783-.366-2.49-1.099-.702-.738-1.052-1.632-1.052-2.682s.35-1.942 1.052-2.675c.702-.738 1.532-1.106 2.49-1.106.322 0 .627.043.914.13.292.082.533.187.722.315.19.123.351.249.484.377.139.128.239.233.3.315l.092.123V45.14h1.107v7.086c0 1.06-.361 1.955-1.084 2.682-.717.728-1.59 1.092-2.62 1.092a3.85 3.85 0 01-1.145-.17 3.306 3.306 0 01-.883-.392 5.564 5.564 0 01-.615-.453 2.283 2.283 0 01-.376-.4l-.123-.161.707-.707c.02.03.053.074.099.13.052.062.154.165.308.308.159.149.325.277.499.384.174.113.4.213.676.3.277.092.561.138.853.138.712 0 1.322-.263 1.829-.791.512-.528.768-1.181.768-1.96zm-4.218-5.418c-.492.533-.738 1.183-.738 1.952 0 .768.246 1.42.738 1.952.497.533 1.065.8 1.706.8.681 0 1.27-.265 1.767-.792.497-.528.745-1.181.745-1.96 0-.779-.248-1.432-.745-1.96s-1.086-.792-1.767-.792c-.641 0-1.209.267-1.706.8zm14.53 2.521l-6.139-.016c.041.682.32 1.27.837 1.768.523.497 1.135.745 1.836.745.472 0 .91-.105 1.314-.315.405-.21.692-.42.861-.63l.269-.307.707.707c-.031.04-.077.1-.139.177a3.777 3.777 0 01-.384.376 4.22 4.22 0 01-.637.469c-.226.133-.52.259-.884.376-.359.113-.727.17-1.107.17-1.029 0-1.915-.382-2.658-1.146-.743-.768-1.114-1.698-1.114-2.79 0-1.09.366-2.018 1.099-2.782.737-.768 1.603-1.152 2.597-1.152 1.029 0 1.89.358 2.581 1.076.692.712 1.038 1.614 1.038 2.705l-.077.569zm-1.852-2.652a2.357 2.357 0 00-1.69-.669c-.661 0-1.237.234-1.729.7a2.743 2.743 0 00-.868 1.66h5.117c-.082-.682-.359-1.245-.83-1.69zm4.603-2.321V42.62h1.021v2.521h1.652v1.022h-1.652v4.489c0 .788.341 1.18 1.022 1.175.169 0 .336-.02.5-.061.169-.041.297-.077.384-.108l.138-.061v1.022a2.257 2.257 0 01-1.068.23c-.65 0-1.16-.19-1.529-.568-.363-.385-.545-.928-.545-1.63v-4.488h-1.422V45.14h.868c.421 0 .631-.261.631-.784zm5.432 8.339V41.674h1.183v4.88h6.132v-4.88h1.183v11.02h-1.183v-5.033h-6.132v5.034h-1.183zm16.835 0v-1.022c-.021.03-.051.074-.092.13a3.298 3.298 0 01-.292.285c-.149.133-.31.253-.484.36a3.037 3.037 0 01-.692.278 3.125 3.125 0 01-.876.123c-.881 0-1.613-.305-2.197-.915-.579-.615-.869-1.412-.869-2.39V45.14h1.099v4.404c0 .66.205 1.206.615 1.637a2 2 0 001.506.645c.64 0 1.18-.235 1.621-.707.441-.471.661-1.073.661-1.806V45.14h1.106v7.555h-1.106zm4.802-7.555v1.099a5.17 5.17 0 01.092-.13c.041-.057.139-.16.292-.308a3.02 3.02 0 01.484-.384c.175-.113.402-.213.684-.3a2.88 2.88 0 01.884-.138c.912 0 1.652.294 2.22.883.569.59.853 1.371.853 2.344v4.489h-1.106v-4.489c0-.66-.192-1.19-.576-1.59-.379-.405-.869-.608-1.468-.608-.671 0-1.232.236-1.683.707-.45.472-.676 1.074-.676 1.807v4.173h-1.099V45.14h1.099zm8.736-.784V42.62h1.022v2.521h1.652v1.022h-1.652v4.489c0 .788.341 1.18 1.022 1.175.169 0 .336-.02.5-.061.169-.041.297-.077.384-.108l.138-.061v1.022a2.257 2.257 0 01-1.068.23c-.65 0-1.16-.19-1.529-.568-.364-.385-.545-.928-.545-1.63v-4.488h-1.422V45.14h.868c.42 0 .63-.261.63-.784zm11.326 4.973l-6.139-.016c.041.682.32 1.27.837 1.768.523.497 1.135.745 1.837.745.471 0 .909-.105 1.314-.315.404-.21.691-.42.86-.63l.269-.307.707.707-.138.177a4.014 4.014 0 01-.384.376 4.28 4.28 0 01-.638.469c-.225.133-.52.259-.884.376a3.66 3.66 0 01-1.106.17c-1.03 0-1.916-.382-2.659-1.146-.742-.768-1.114-1.698-1.114-2.79 0-1.09.366-2.018 1.099-2.782.738-.768 1.603-1.152 2.597-1.152 1.03 0 1.89.358 2.582 1.076.691.712 1.037 1.614 1.037 2.705l-.077.569zm-1.852-2.652a2.355 2.355 0 00-1.69-.669c-.661 0-1.237.234-1.729.7a2.743 2.743 0 00-.868 1.66H253c-.082-.682-.358-1.245-.83-1.69zm7.83-1.698v1.106h-.476a2.3 2.3 0 00-1.668.677c-.461.45-.691 1.037-.691 1.76v4.173h-1.099V45.14h1.099v1.022c.02-.03.051-.072.092-.123.041-.056.138-.151.292-.284.154-.139.318-.259.492-.361.179-.108.415-.203.707-.285.297-.087.609-.13.937-.13H260z" fill="#626262"/><path d="M47.036 5.787V2.605h4.253v5.482h3.526v4.254H51.29v6.9c0 .541.196 1.003.587 1.383.404.38.911.57 1.522.57.311 0 .61-.028.899-.086.3-.07.524-.138.674-.207l.208-.07v4.081c-.946.358-2.012.53-3.199.52-3.653 0-5.48-2.007-5.48-6.019v-7.072h-3.008V8.087h1.59c.542 0 1.003-.213 1.383-.64.38-.426.57-.98.57-1.66zM64.22.288v9.563c.139-.185.329-.41.57-.675.254-.276.808-.645 1.66-1.106a5.69 5.69 0 012.715-.692c1.982 0 3.596.686 4.84 2.058 1.257 1.372 1.885 3.222 1.885 5.55v10.1h-4.772v-9.563c0-1.061-.317-1.914-.95-2.56-.623-.657-1.43-.985-2.42-.985-1.084 0-1.943.357-2.577 1.072-.634.703-.95 1.706-.95 3.009v9.026h-4.79V.288h4.79zm46.713 24.797v-9.562c0-1.107-.265-1.972-.795-2.594-.53-.634-1.21-.951-2.04-.951-.922 0-1.683.363-2.282 1.09-.599.714-.899 1.711-.899 2.99v9.027h-4.772v-9.562c0-1.107-.27-1.972-.812-2.594-.53-.634-1.205-.951-2.023-.951-.922 0-1.688.363-2.3 1.09-.599.714-.898 1.711-.898 2.99v9.027H89.34V7.724h4.772V9.85c.115-.185.294-.41.536-.675.242-.276.755-.645 1.538-1.106a4.986 4.986 0 012.542-.692c.68 0 1.319.11 1.919.329.599.207 1.077.455 1.435.743.357.277.662.565.916.865.265.288.444.542.536.76l.138.312c.046-.07.121-.173.225-.311.115-.15.351-.392.709-.727.368-.346.76-.651 1.175-.916.415-.277.957-.519 1.625-.726a6.838 6.838 0 012.11-.329c1.913 0 3.423.646 4.529 1.937 1.118 1.28 1.677 3.17 1.677 5.672v10.098h-4.789zm21.075 0v-1.764a9.163 9.163 0 01-.588.606c-.254.23-.813.541-1.677.933a6.555 6.555 0 01-2.697.571c-1.983 0-3.602-.663-4.858-1.989-1.245-1.337-1.867-3.112-1.867-5.326V7.724h4.771v9.926c0 .968.317 1.77.951 2.403.646.634 1.452.951 2.42.951 1.084 0 1.943-.351 2.576-1.055.646-.703.969-1.706.969-3.008V7.724h4.771v17.361h-4.771zm21.575-15.044l-2.472 2.819a3.86 3.86 0 00-.346-.38c-.15-.162-.472-.37-.968-.623a3.188 3.188 0 00-1.521-.398c-.657 0-1.176.144-1.556.432-.38.277-.571.6-.571.969 0 .45.271.824.813 1.124.542.3 1.199.57 1.971.812.784.23 1.573.513 2.368.848.796.322 1.464.853 2.006 1.59.541.727.812 1.632.812 2.715 0 1.557-.616 2.86-1.85 3.909-1.221 1.049-2.904 1.573-5.048 1.573-.922 0-1.798-.11-2.628-.328-.829-.22-1.504-.485-2.022-.796a14.73 14.73 0 01-1.366-.916c-.38-.312-.657-.571-.83-.778l-.242-.364 2.662-2.645c.093.138.237.317.433.536.207.207.634.495 1.279.864a4.086 4.086 0 002.005.536c.761 0 1.332-.144 1.712-.432.392-.3.588-.686.588-1.159 0-.472-.271-.864-.813-1.175-.541-.323-1.21-.6-2.005-.83a23.47 23.47 0 01-2.369-.865 4.946 4.946 0 01-1.971-1.556c-.541-.704-.812-1.591-.812-2.663 0-1.395.645-2.658 1.936-3.787 1.303-1.13 2.899-1.695 4.789-1.695 1.199 0 2.299.225 3.302.674 1.014.45 1.717.888 2.109 1.315l.605.674zm9.042-2.317v17.361h-4.789V7.724h4.789zm6.5 15.009c-1.855-1.81-2.783-3.92-2.783-6.328 0-2.41.928-4.514 2.783-6.312 1.856-1.81 4.057-2.715 6.605-2.715a8.48 8.48 0 012.558.38c.819.242 1.487.536 2.006.882.518.335.979.675 1.383 1.02.403.346.697.646.881.9l.26.363-3.008 3.009a5.054 5.054 0 00-.467-.64c-.208-.265-.669-.605-1.383-1.02a4.232 4.232 0 00-2.23-.64c-1.257 0-2.34.467-3.251 1.4-.899.934-1.348 2.064-1.348 3.39 0 1.314.455 2.438 1.366 3.372.91.934 1.988 1.4 3.233 1.4a4.62 4.62 0 002.23-.57c.714-.38 1.233-.761 1.556-1.141l.466-.588 2.836 3.009-.294.397c-.115.162-.392.444-.83.848a9.8 9.8 0 01-1.418 1.054c-.507.3-1.169.583-1.988.848a8.48 8.48 0 01-2.558.38c-2.548 0-4.749-.899-6.605-2.698zM162.21.842c.507.484.761 1.13.761 1.936 0 .796-.254 1.436-.761 1.92s-1.199.726-2.075.726c-.806 0-1.452-.242-1.936-.726-.472-.484-.709-1.124-.709-1.92 0-.807.242-1.452.726-1.936.484-.485 1.124-.727 1.919-.727.876 0 1.568.242 2.075.727zM80.782 24.636c-.553-.53-.83-1.147-.83-1.85 0-.715.277-1.338.83-1.868.554-.53 1.222-.795 2.006-.795.784 0 1.452.265 2.005.795.554.53.83 1.153.83 1.868 0 .703-.276 1.32-.83 1.85-.553.53-1.221.795-2.005.795-.784 0-1.452-.265-2.005-.795z" fill="#14121E"/><path d="M22.467.795c-.553.53-.83 1.147-.83 1.85 0 .715.277 1.338.83 1.868.553.53 1.222.796 2.006.796.783 0 1.452-.266 2.005-.796.553-.53.83-1.153.83-1.867 0-.704-.277-1.32-.83-1.85C25.925.264 25.256 0 24.472 0c-.783 0-1.452.265-2.005.795z" fill="#4CB7BF"/><path d="M11.649.795c-.553.53-.83 1.147-.83 1.85 0 .715.276 1.338.83 1.868.553.53 1.221.796 2.005.796.784 0 1.452-.266 2.006-.796.553-.53.83-1.153.83-1.867 0-.704-.277-1.32-.83-1.85C15.106.264 14.438 0 13.654 0c-.784 0-1.452.265-2.005.795z" fill="#F78868"/><path d="M.83.795C.277 1.325 0 1.942 0 2.645c0 .715.277 1.338.83 1.868.553.53 1.222.796 2.005.796.784 0 1.452-.266 2.006-.796.553-.53.83-1.153.83-1.867 0-.704-.277-1.32-.83-1.85C4.287.264 3.619 0 2.835 0 2.052 0 1.383.265.83.795z" fill="#F7C34C"/><path d="M11.649 10.588c-.553.53-.83 1.147-.83 1.85 0 .715.276 1.338.83 1.868.553.53 1.221.796 2.005.796.784 0 1.452-.266 2.006-.796.553-.53.83-1.153.83-1.867 0-.704-.277-1.32-.83-1.85-.554-.531-1.222-.796-2.006-.796-.784 0-1.452.265-2.005.795z" fill="#F78868"/><path d="M22.467 10.588c-.553.53-.83 1.147-.83 1.85 0 .715.277 1.338.83 1.868.553.53 1.222.796 2.006.796.783 0 1.452-.266 2.005-.796.553-.53.83-1.153.83-1.867 0-.704-.277-1.32-.83-1.85-.553-.531-1.222-.796-2.006-.796-.783 0-1.452.265-2.005.795zm0 10.33c-.553.53-.83 1.147-.83 1.85 0 .715.277 1.337.83 1.868.553.53 1.222.795 2.006.795.783 0 1.452-.265 2.005-.795.553-.53.83-1.153.83-1.868 0-.703-.277-1.32-.83-1.85-.553-.53-1.222-.796-2.006-.796-.783 0-1.452.266-2.005.796z" fill="#4CB7BF"/></svg>