<svg width="180" height="25" fill="none" xmlns="http://www.w3.org/2000/svg"><path d="M46.31 5.689V2.56h4.188v5.39h3.473v4.181h-3.473v6.783c0 .533.193.986.579 1.36.397.374.896.56 1.498.56.306 0 .601-.027.885-.084.295-.068.516-.136.664-.204l.204-.068v4.011c-.93.352-1.98.522-3.149.51-3.597 0-5.396-1.971-5.396-5.915V12.13h-2.962V7.95h1.566c.534 0 .988-.21 1.362-.63.374-.418.562-.962.562-1.631zM63.23.283v9.4c.137-.18.324-.402.562-.662.25-.272.794-.635 1.634-1.088a5.609 5.609 0 012.673-.68c1.951 0 3.54.674 4.766 2.023 1.237 1.348 1.855 3.167 1.855 5.456v9.928h-4.698v-9.4c0-1.043-.312-1.882-.936-2.517-.613-.646-1.407-.969-2.383-.969-1.067 0-1.912.352-2.536 1.054-.625.692-.937 1.678-.937 2.958v8.874h-4.715V.283h4.715zm45.993 24.377v-9.4c0-1.089-.261-1.939-.783-2.55-.522-.624-1.191-.936-2.008-.936-.908 0-1.657.357-2.247 1.071-.59.703-.885 1.683-.885 2.941v8.874h-4.698v-9.4c0-1.089-.267-1.939-.8-2.55-.522-.624-1.186-.936-1.992-.936-.908 0-1.662.357-2.264 1.071-.59.703-.885 1.683-.885 2.941v8.874h-4.698V7.593h4.698v2.09c.114-.18.29-.402.528-.662.238-.272.743-.635 1.515-1.088a4.915 4.915 0 012.502-.68c.67 0 1.3.107 1.89.323.59.204 1.06.447 1.412.73.352.273.653.556.902.85.261.284.437.533.528.749l.136.306c.046-.068.119-.17.222-.306.113-.148.346-.386.697-.714.364-.34.749-.64 1.158-.901.408-.272.942-.51 1.6-.714a6.74 6.74 0 012.077-.323c1.883 0 3.37.634 4.459 1.904 1.101 1.258 1.651 3.116 1.651 5.575v9.928h-4.715zm20.75 0v-1.734a8.577 8.577 0 01-.579.595c-.249.226-.8.532-1.651.918a6.455 6.455 0 01-2.655.56c-1.952 0-3.546-.651-4.783-1.954-1.226-1.315-1.839-3.06-1.839-5.236V7.593h4.698v9.757c0 .952.312 1.74.936 2.363.636.623 1.43.935 2.384.935 1.066 0 1.912-.346 2.536-1.037.635-.691.953-1.677.953-2.958v-9.06h4.698V24.66h-4.698zm21.243-14.79l-2.434 2.771a3.84 3.84 0 00-.34-.374c-.148-.158-.466-.362-.954-.611a3.142 3.142 0 00-1.497-.392c-.647 0-1.158.142-1.532.426-.375.271-.562.589-.562.951 0 .442.266.81.8 1.105.533.295 1.18.561 1.94.8.772.226 1.549.504 2.332.832.783.317 1.442.839 1.975 1.564.533.714.8 1.604.8 2.669 0 1.53-.607 2.81-1.821 3.842-1.203 1.03-2.86 1.547-4.971 1.547-.908 0-1.77-.108-2.587-.323-.817-.216-1.481-.476-1.992-.782-.51-.306-.959-.607-1.344-.901-.375-.306-.647-.561-.817-.765l-.239-.357 2.622-2.601c.09.136.232.312.425.527.204.204.624.487 1.26.85a4.026 4.026 0 001.974.527c.749 0 1.311-.142 1.685-.425.386-.295.579-.674.579-1.14 0-.464-.266-.85-.8-1.155-.533-.317-1.191-.59-1.974-.816a23.03 23.03 0 01-2.332-.85 4.865 4.865 0 01-1.941-1.53c-.533-.691-.8-1.564-.8-2.618 0-1.37.636-2.612 1.907-3.722 1.282-1.11 2.854-1.666 4.715-1.666 1.18 0 2.264.22 3.251.663.998.442 1.691.872 2.076 1.292l.596.663zm8.903-2.277V24.66h-4.715V7.593h4.715zm6.4 14.755c-1.827-1.78-2.741-3.853-2.741-6.222 0-2.368.914-4.437 2.741-6.204 1.827-1.78 3.994-2.67 6.502-2.67a8.34 8.34 0 012.519.375c.806.238 1.464.527 1.975.867.511.328.964.663 1.362 1.003.397.34.686.634.868.884l.255.357-2.962 2.957a4.844 4.844 0 00-.459-.629c-.205-.26-.658-.595-1.362-1.003a4.17 4.17 0 00-2.196-.629c-1.237 0-2.303.46-3.2 1.377-.885.918-1.328 2.029-1.328 3.332 0 1.292.449 2.397 1.345 3.315.897.918 1.958 1.377 3.183 1.377.772 0 1.504-.187 2.196-.561.704-.374 1.214-.748 1.532-1.122l.46-.578L180 21.532c-.068.09-.164.22-.289.39-.114.16-.386.437-.817.834a9.741 9.741 0 01-1.396 1.037c-.499.294-1.152.572-1.958.832a8.362 8.362 0 01-2.519.375c-2.508 0-4.675-.884-6.502-2.652zM159.71.827c.499.476.749 1.11.749 1.904 0 .782-.25 1.411-.749 1.887s-1.18.714-2.043.714c-.794 0-1.43-.238-1.906-.714-.465-.476-.698-1.105-.698-1.887 0-.793.238-1.428.715-1.904s1.106-.714 1.889-.714c.863 0 1.544.238 2.043.714zM79.537 24.218c-.544-.522-.817-1.128-.817-1.82 0-.702.273-1.314.817-1.835.545-.521 1.203-.782 1.975-.782.771 0 1.43.26 1.974.782.545.521.817 1.133.817 1.836 0 .69-.272 1.297-.817 1.819-.544.52-1.203.781-1.974.781-.772 0-1.43-.26-1.975-.781z" fill="#fff"/><path d="M22.12.782c-.544.521-.816 1.128-.816 1.819 0 .702.272 1.314.817 1.836a2.754 2.754 0 001.974.782c.772 0 1.43-.261 1.975-.782.544-.522.817-1.134.817-1.836 0-.691-.273-1.298-.817-1.819C25.525.261 24.867 0 24.095 0c-.771 0-1.43.26-1.974.782z" fill="#4CB7BF"/><path d="M11.469.782c-.545.521-.817 1.128-.817 1.819 0 .702.272 1.314.817 1.836a2.754 2.754 0 001.974.782c.772 0 1.43-.261 1.975-.782.545-.522.817-1.134.817-1.836 0-.691-.272-1.298-.817-1.819C14.873.261 14.215 0 13.443 0c-.771 0-1.43.26-1.974.782z" fill="#F78868"/><path d="M.817.782C.272 1.303 0 1.91 0 2.601c0 .702.272 1.314.817 1.836.545.521 1.203.782 1.975.782.771 0 1.43-.261 1.974-.782.545-.522.817-1.134.817-1.836 0-.691-.272-1.298-.817-1.819A2.754 2.754 0 002.792 0C2.02 0 1.362.26.817.782z" fill="#F7C34C"/><path d="M11.469 10.409c-.545.521-.817 1.127-.817 1.819 0 .702.272 1.314.817 1.836.545.52 1.203.782 1.974.782.772 0 1.43-.261 1.975-.782.545-.522.817-1.134.817-1.836 0-.691-.272-1.298-.817-1.82-.545-.52-1.203-.781-1.975-.781-.771 0-1.43.26-1.974.782z" fill="#F78868"/><path d="M22.12 10.409c-.544.521-.816 1.127-.816 1.819 0 .702.272 1.314.817 1.836.545.52 1.203.782 1.974.782.772 0 1.43-.261 1.975-.782.544-.522.817-1.134.817-1.836 0-.691-.273-1.298-.817-1.82-.545-.52-1.203-.781-1.975-.781-.771 0-1.43.26-1.974.782zm0 10.154c-.544.521-.816 1.127-.816 1.819 0 .702.272 1.314.817 1.835.545.522 1.203.783 1.974.783.772 0 1.43-.261 1.975-.782.544-.522.817-1.134.817-1.836 0-.692-.273-1.298-.817-1.82-.545-.52-1.203-.781-1.975-.781-.771 0-1.43.26-1.974.782z" fill="#4CB7BF"/></svg>