<svg width="20" height="20" fill="none" xmlns="http://www.w3.org/2000/svg"><path d="M10 6.667a3.333 3.333 0 100 6.666 3.333 3.333 0 000-6.666zm0 5a1.667 1.667 0 110-3.334 1.667 1.667 0 010 3.334z" fill="#14121E"/><path d="M17.745 11.583l-.37-.213a7.587 7.587 0 000-2.742l.37-.213a2.502 2.502 0 00-2.5-4.333l-.37.214A7.482 7.482 0 0012.5 2.927V2.5a2.5 2.5 0 10-5 0v.428a7.48 7.48 0 00-2.373 1.371l-.373-.216a2.501 2.501 0 10-2.5 4.334l.37.213a7.584 7.584 0 000 2.742l-.37.213a2.501 2.501 0 102.5 4.333l.371-.214A7.48 7.48 0 007.5 17.073v.427a2.5 2.5 0 005 0v-.427a7.48 7.48 0 002.373-1.372l.373.215a2.501 2.501 0 102.5-4.334v.001zm-2.123-3.146a5.873 5.873 0 010 3.125.834.834 0 00.387.944l.903.521a.834.834 0 01-.834 1.445l-.904-.524a.833.833 0 00-1.013.138 5.82 5.82 0 01-2.702 1.562.834.834 0 00-.626.808V17.5a.833.833 0 01-1.667 0v-1.043a.833.833 0 00-.626-.808 5.82 5.82 0 01-2.702-1.566.834.834 0 00-1.012-.137l-.903.522a.833.833 0 11-.834-1.443l.904-.522a.833.833 0 00.386-.944 5.873 5.873 0 010-3.125.833.833 0 00-.387-.94l-.904-.522a.834.834 0 01.834-1.445l.905.524a.833.833 0 001.011-.134 5.82 5.82 0 012.703-1.563.833.833 0 00.626-.81V2.5a.833.833 0 111.667 0v1.043a.833.833 0 00.625.808 5.82 5.82 0 012.703 1.566.834.834 0 001.012.137l.904-.522a.833.833 0 11.833 1.443l-.903.522a.833.833 0 00-.386.94z" fill="#14121E"/></svg>