<svg width="40" height="40" fill="none" xmlns="http://www.w3.org/2000/svg"><g clip-path="url(#clip0)" fill="#14121E" fill-opacity=".2"><path d="M31.667 0H8.333A8.343 8.343 0 000 8.333v23.334A8.343 8.343 0 008.333 40h23.334A8.343 8.343 0 0040 31.667V8.333A8.343 8.343 0 0031.667 0zm-20 36.667V35a8.333 8.333 0 1116.666 0v1.667H11.667zm25-5a5 5 0 01-5 5V35a11.667 11.667 0 00-23.334 0v1.667a5 5 0 01-5-5V8.333a5 5 0 015-5h23.334a5 5 0 015 5v23.334z"/><path d="M19.999 6.667a6.667 6.667 0 100 13.333 6.667 6.667 0 000-13.334zm0 10a3.333 3.333 0 110-6.667 3.333 3.333 0 010 6.666z"/></g><defs><clipPath id="clip0"><path fill="#fff" d="M0 0h40v40H0z"/></clipPath></defs></svg>