<svg width="110" height="27" fill="none" xmlns="http://www.w3.org/2000/svg"><path d="M63.36 16.819c-.405.595-1.037 1.06-2.058 1.06-1.88 0-2.462-1.558-2.657-2.667h9.964c.048-.37.065-.74.065-1.125 0-4.292-2.755-7.394-7.388-7.394s-7.388 3.102-7.388 7.394c0 4.29 2.755 7.393 7.388 7.393 3.37 0 5.751-1.64 6.788-4.195l-4.714-.466zm-2.058-6.525c1.88 0 2.463 1.559 2.657 2.668h-5.298c.162-1.125.762-2.668 2.641-2.668zm27.266 6.525c-.405.595-1.037 1.06-2.058 1.06-1.879 0-2.462-1.558-2.657-2.667h9.964c.049-.37.065-.74.065-1.125 0-4.292-2.754-7.394-7.388-7.394-4.633 0-7.387 3.102-7.387 7.394 0 4.29 2.754 7.393 7.387 7.393 3.37 0 5.751-1.64 6.788-4.195l-4.714-.466zm-2.058-6.525c1.88 0 2.463 1.559 2.657 2.668H83.87c.162-1.125.761-2.668 2.64-2.668zm16.055-3.601c-4.617 0-7.387 3.102-7.387 7.394 0 4.29 2.754 7.393 7.387 7.393 4.617 0 7.388-3.102 7.388-7.393 0-4.292-2.771-7.394-7.388-7.394zm0 11.187c-2.932 0-2.721-3.793-2.721-3.793s-.195-3.793 2.721-3.793c2.933 0 2.722 3.793 2.722 3.793s.211 3.793-2.722 3.793zm-49.801-.772c-.923.129-3.175.145-3.175-2.716v-4.114h2.819V7.063h-2.819V3.238l-4.78 3.841v7.49c0 9.145 8.344 6.621 8.344 6.509l-.389-3.97zM78.604 7.08s-8.343-1.994-8.343 6.508v7.49h4.78v-7.313c0-2.86 2.251-2.845 3.175-2.716l.388-3.97zM42.51 14.087c-2.058-2.09-6.854-.98-6.854-2.845 0-.74.648-1.029 1.523-1.029 1.507 0 1.588 1.479 1.588 1.479l4.65-.45c-.308-4.388-5.25-4.549-6.416-4.549-1.215 0-6.075.483-6.075 4.565 0 1.27.356 2.17.923 2.813 2.058 2.089 6.853.98 6.853 2.844 0 .74-.648 1.029-1.523 1.029-1.506 0-1.587-1.479-1.587-1.479l-4.65.45c.308 4.388 5.249 4.549 6.416 4.549 1.215 0 6.075-.482 6.075-4.565 0-1.27-.357-2.17-.924-2.812zM11.323 1.036v5.818c1.312-.177 4.504-.209 4.504 3.841v5.835l6.772 4.548V10.47C22.582-.812 13.656.425 11.323 1.036zm0 19.11c-1.312.177-4.504.209-4.504-3.841V10.47L.047 5.922V16.53c0 11.282 8.943 10.045 11.276 9.434v-5.818z" fill="#F1F2F2"/></svg>