<svg width="16" height="16" fill="none" xmlns="http://www.w3.org/2000/svg"><path d="M14 2.667h-2.067A3.34 3.34 0 008.667 0H7.333a3.34 3.34 0 00-3.266 2.667H2A.667.667 0 102 4h.667v8.667A3.337 3.337 0 006 16h4a3.338 3.338 0 003.333-3.333V4H14a.667.667 0 100-1.333zM7.333 1.333h1.334a2.004 2.004 0 011.886 1.334H5.447a2.004 2.004 0 011.886-1.334zM12 12.667a2 2 0 01-2 2H6a2 2 0 01-2-2V4h8v8.667z" fill="#9B9B9B"/><path d="M6.667 12a.667.667 0 00.666-.667v-4a.667.667 0 10-1.333 0v4a.667.667 0 00.667.667zm2.666 0a.667.667 0 00.667-.667v-4a.667.667 0 00-1.333 0v4a.667.667 0 00.666.667z" fill="#9B9B9B"/></svg>