<svg width="25" height="14" fill="none" xmlns="http://www.w3.org/2000/svg"><path fill-rule="evenodd" clip-rule="evenodd" d="M13.677 13.78s.433-.046.655-.273c.203-.207.196-.598.196-.598s-.027-1.827.866-2.097c.88-.265 2.011 1.767 3.21 2.548.907.59 1.595.462 1.595.462l3.206-.043s1.676-.098.881-1.35c-.066-.102-.463-.926-2.383-2.618-2.01-1.77-1.74-1.484.68-4.548 1.474-1.866 2.064-3.005 1.88-3.492-.176-.465-1.26-.342-1.26-.342l-3.609.021s-.267-.034-.466.078c-.193.11-.319.368-.319.368s-.57 1.443-1.332 2.672c-1.607 2.59-2.25 2.727-2.512 2.566-.612-.375-.46-1.506-.46-2.31 0-2.511.402-3.558-.78-3.828-.392-.09-.68-.15-1.684-.16-1.288-.012-2.377.005-2.995.291-.41.19-.728.617-.534.641.238.03.778.138 1.065.508.37.478.357 1.55.357 1.55s.212 2.956-.497 3.323c-.486.252-1.153-.262-2.586-2.613-.734-1.203-1.288-2.534-1.288-2.534s-.106-.248-.298-.382a1.526 1.526 0 00-.554-.212l-3.429.021s-.515.014-.704.226c-.168.189-.013.58-.013.58s2.685 5.964 5.725 8.97c2.788 2.755 5.953 2.574 5.953 2.574h1.434z" fill="#14121E"/></svg>