<svg width="24" height="14" fill="none" xmlns="http://www.w3.org/2000/svg"><path fill-rule="evenodd" clip-rule="evenodd" d="M13.177 13.446s.433-.046.655-.272c.203-.208.196-.599.196-.599s-.027-1.826.866-2.096c.88-.265 2.011 1.766 3.21 2.548.907.59 1.595.461 1.595.461l3.206-.042s1.676-.098.881-1.35c-.066-.103-.463-.926-2.383-2.618-2.01-1.771-1.74-1.485.68-4.548 1.474-1.866 2.064-3.005 1.88-3.492-.176-.466-1.26-.342-1.26-.342l-3.609.02s-.267-.034-.466.079c-.193.11-.319.368-.319.368s-.57 1.443-1.332 2.671c-1.607 2.59-2.25 2.727-2.512 2.567-.612-.376-.46-1.507-.46-2.31 0-2.511.402-3.558-.78-3.829-.392-.09-.68-.15-1.684-.16-1.288-.011-2.377.005-2.995.292-.41.19-.728.616-.534.64.238.03.778.139 1.065.509.37.478.357 1.55.357 1.55s.212 2.956-.497 3.322c-.486.252-1.153-.262-2.586-2.612-.734-1.204-1.288-2.534-1.288-2.534s-.106-.249-.298-.383c-.231-.161-.554-.211-.554-.211l-3.429.02s-.515.014-.704.227c-.168.188-.013.58-.013.58s2.685 5.963 5.725 8.97c2.788 2.754 5.953 2.574 5.953 2.574h1.434z" fill="#fff"/></svg>